# xmcd
#
# Track frame offsets:
#	150
#	17250
#	34501
#	49951
#	64876
#	81345
#	95368
#	112393
#	132873
#	148457
#	167063
#	185948
#	202268
#	217300
#	232274
#	248462
#
# Disc length: 3504 seconds
#
# Revision: 0
# Processed by: cddbd v1.5.1PL0 Copyright (c) Steve Scherf et al.
# Submitted via: audiograbber 1.83.01
#
DISCID=fd0dae10
DTITLE=Peter Stasak - Vsetko najlepsie (vyber)
DYEAR=2004
DGENRE=Blues
TTITLE0=Pisem basen
TTITLE1=V pristave tuzob
TTITLE2=Kubasska voda
TTITLE3=Usta sladke od vina
TTITLE4=Len mama vie to
TTITLE5=Europske plaze
TTITLE6=Adio Bella
TTITLE7=Zijem, zijem...
TTITLE8=Moj zivot je piesen
TTITLE9=Povedz mi hviezda
TTITLE10=Lod Lasky
TTITLE11=Laska vie
TTITLE12=Blizko tvojho nadvoria
TTITLE13=Adio smutok
TTITLE14=Nadherne svieti Luna
TTITLE15=Preto tuto piesen spievam
EXTD=Slovak
EXTT0=
EXTT1=
EXTT2=
EXTT3=
EXTT4=
EXTT5=
EXTT6=
EXTT7=
EXTT8=
EXTT9=
EXTT10=
EXTT11=
EXTT12=
EXTT13=
EXTT14=
EXTT15=
PLAYORDER=
